<svg width="16" height="17" viewBox="0 0 16 17" fill="none" xmlns="http://www.w3.org/2000/svg">
<g clip-path="url(#clip0)">
<path d="M8.13683 4.68162C6.02169 4.68162 4.31561 6.38494 4.31561 8.49666C4.31561 10.6084 6.02169 12.3117 8.13683 12.3117C10.252 12.3117 11.9581 10.6084 11.9581 8.49666C11.9581 6.38494 10.252 4.68162 8.13683 4.68162ZM8.13683 10.9769C6.76997 10.9769 5.65254 9.86463 5.65254 8.49666C5.65254 7.12869 6.76664 6.01639 8.13683 6.01639C9.50702 6.01639 10.6211 7.12869 10.6211 8.49666C10.6211 9.86463 9.50369 10.9769 8.13683 10.9769ZM13.0056 4.52557C13.0056 5.0203 12.6066 5.41541 12.1144 5.41541C11.6188 5.41541 11.2231 5.01698 11.2231 4.52557C11.2231 4.03416 11.6222 3.63573 12.1144 3.63573C12.6066 3.63573 13.0056 4.03416 13.0056 4.52557ZM15.5365 5.42869C15.48 4.2367 15.2073 3.18084 14.3326 2.31092C13.4613 1.441 12.4037 1.16873 11.2098 1.10897C9.97926 1.03924 6.29107 1.03924 5.06056 1.10897C3.86997 1.16541 2.8124 1.43768 1.93774 2.3076C1.06308 3.17752 0.7937 4.23338 0.733837 5.42537C0.663998 6.65389 0.663998 10.3361 0.733837 11.5646C0.790374 12.7566 1.06308 13.8125 1.93774 14.6824C2.8124 15.5523 3.86664 15.8246 5.06056 15.8844C6.29107 15.9541 9.97926 15.9541 11.2098 15.8844C12.4037 15.8279 13.4613 15.5556 14.3326 14.6824C15.2039 13.8125 15.4766 12.7566 15.5365 11.5646C15.6063 10.3361 15.6063 6.65721 15.5365 5.42869ZM13.9468 12.8828C13.6874 13.5336 13.1852 14.0349 12.5301 14.2972C11.549 14.6857 9.22101 14.5961 8.13683 14.5961C7.05265 14.5961 4.72134 14.6824 3.74359 14.2972C3.09175 14.0383 2.58957 13.5369 2.32684 12.8828C1.93774 11.9033 2.02753 9.57908 2.02753 8.49666C2.02753 7.41424 1.94106 5.0867 2.32684 4.11053C2.58625 3.45975 3.08843 2.95838 3.74359 2.69608C4.72467 2.3076 7.05265 2.39725 8.13683 2.39725C9.22101 2.39725 11.5523 2.31092 12.5301 2.69608C13.1819 2.95506 13.6841 3.45643 13.9468 4.11053C14.3359 5.09002 14.2461 7.41424 14.2461 8.49666C14.2461 9.57908 14.3359 11.9066 13.9468 12.8828Z" fill="white"/>
</g>
<defs>
<clipPath id="clip0">
<rect width="14.8991" height="17" fill="white" transform="translate(0.68396)"/>
</clipPath>
</defs>
</svg>
